# xmcd
#
# Track frame offsets: 
#        150
#        10945
#        27467
#        51575
#        64235
#        79415
#        100427
#        112972
#        135647
#        152685
#        175722
#        178532
#        213200
#        230760
#        246640
#
# Disc length: 3548 seconds
#
# Revision: 17
# Processed by: cddbd v1.5.2PL0 Copyright (c) Steve Scherf et al.
# Submitted via: ExactAudioCopy v0.99pb3
#
DISCID=d50dda0f
DTITLE=Stevie Ray Vaughan and Double Trouble - Texas Flood
DYEAR=1999
DGENRE=Blues
TTITLE0=Love Struck Baby
TTITLE1=Pride And Joy
TTITLE2=Texas Flood
TTITLE3=Tell Me
TTITLE4=Testify
TTITLE5=Rude Mood
TTITLE6=Mary Had A Little Lamb
TTITLE7=Dirty Pool
TTITLE8=I'm Cryin'
TTITLE9=Lenny
TTITLE10=SRV Speaks
TTITLE11=Tin Pan Alley (aka Roughest Place In Town)
TTITLE12=Testify (Live)
TTITLE13=Mary Had A Little Lamb (Live)
TTITLE14=Wham! (Live)
EXTD=Recorded at Down Town Studio, Los Angeles, California, USA and Rive
EXTD=rside Sound, Austin, Texas, US YEAR: 1983
EXTT0=
EXTT1=
EXTT2=
EXTT3=
EXTT4=
EXTT5=
EXTT6=
EXTT7=
EXTT8=
EXTT9=
EXTT10=
EXTT11=
EXTT12=
EXTT13=
EXTT14=
PLAYORDER=
